<?xml version="1.0" standalone="no"?><!DOCTYPE svg PUBLIC "-//W3C//DTD SVG 1.1//EN" "http://www.w3.org/Graphics/SVG/1.1/DTD/svg11.dtd"><svg t="1677552825392" class="icon" viewBox="0 0 1024 1024" version="1.1" xmlns="http://www.w3.org/2000/svg" p-id="2782" xmlns:xlink="http://www.w3.org/1999/xlink" width="78" height="78"><g id="root" stroke="none" stroke-width="1" fill="none" fill-rule="evenodd"><rect id="background.accent" fill="#4b6982" x="0" y="0" width="160" height="160"></rect><path d="M80 13.556l-66.444 66.444l66.444 66.444l66.444 -66.444l-66.444 -66.444zm0 -2.556l69 69l-69 69l-69 -69l69 -69z" id="shape.primary" fill="#b4ffd8" fill-rule="nonzero"></path><rect id="icon.primary" x="68" y="85" width="24" height="24" display="none" fill="#b4ffd8"></rect><svg xmlns="http://www.w3.org/2000/svg" xmlns:xlink="http://www.w3.org/1999/xlink" viewBox="0 0 26 26" version="1.1" fill="#b4ffd8" id="svg_icon.primary" x="68" y="85" width="24" height="24"><g id="surface1"><path style=" " d="M 13 0 C 11.457031 0 9.988281 0.3125 8.84375 1.21875 C 7.972656 1.910156 7.367188 2.9375 7.125 4.21875 C 6.460938 4.546875 6 5.214844 6 6 L 6 8.59375 C 4.8125 9.277344 4 10.527344 4 12 L 4 19 C 4 19.523438 4.183594 20.058594 4.5625 20.4375 C 4.941406 20.816406 5.476563 21 6 21 L 7 21 L 7 25 C 7 25.550781 7.449219 26 8 26 L 18 26 C 18.550781 26 19 25.550781 19 25 L 19 21 L 20 21 C 20.523438 21 21.058594 20.816406 21.4375 20.4375 C 21.816406 20.058594 22 19.523438 22 19 L 22 12 C 22 10.527344 21.1875 9.277344 20 8.59375 L 20 6 C 20 5.214844 19.539063 4.546875 18.875 4.21875 C 18.632813 2.917969 18.035156 1.871094 17.15625 1.1875 C 16.003906 0.289063 14.53125 0 13 0 Z M 13 2 C 14.269531 2 15.292969 2.246094 15.9375 2.75 C 16.582031 3.253906 17 4.015625 17 5.5 C 17 6.984375 16.582031 7.746094 15.9375 8.25 C 15.292969 8.753906 14.269531 9 13 9 C 11.742188 9 10.714844 8.738281 10.0625 8.21875 C 9.410156 7.699219 9 6.929688 9 5.5 C 9 4.070313 9.410156 3.300781 10.0625 2.78125 C 10.714844 2.261719 11.742188 2 13 2 Z M 13 3 C 11.699219 3 10 3.699219 10 5 L 10 6 C 10 6.601563 10.398438 7 11 7 L 15 7 C 15.601563 7 16 6.601563 16 6 L 16 5 C 16 3.800781 14.300781 3 13 3 Z M 8 10 L 9.09375 10 C 9.113281 10 9.136719 10 9.15625 10 C 10.25 10.734375 11.59375 11 13 11 C 14.417969 11 15.792969 10.753906 16.90625 10 L 18 10 C 19.191406 10 20 10.808594 20 12 L 20 15 L 19 15 L 19 13 C 19.003906 12.640625 18.816406 12.304688 18.503906 12.121094 C 18.191406 11.941406 17.808594 11.941406 17.496094 12.121094 C 17.183594 12.304688 16.996094 12.640625 17 13 L 17 19.8125 C 17 19.84375 17 19.875 17 19.90625 L 17 20 C 16.992188 20.074219 16.992188 20.144531 17 20.21875 L 17 22.3125 C 16.5625 22.128906 16.054688 22 15.5 22 C 14.945313 22 14.4375 22.128906 14 22.3125 L 14 19 C 14.011719 18.710938 13.894531 18.433594 13.6875 18.238281 C 13.476563 18.039063 13.191406 17.941406 12.90625 17.96875 C 12.863281 17.976563 12.820313 17.988281 12.78125 18 C 12.316406 18.105469 11.988281 18.523438 12 19 L 12 22.3125 C 11.5625 22.128906 11.054688 22 10.5 22 C 9.945313 22 9.4375 22.128906 9 22.3125 L 9 20.1875 C 9.027344 20.054688 9.027344 19.914063 9 19.78125 L 9 13 C 9.007813 12.691406 8.871094 12.398438 8.632813 12.203125 C 8.398438 12.007813 8.082031 11.933594 7.78125 12 C 7.316406 12.105469 6.988281 12.523438 7 13 L 7 15 L 6 15 L 6 12 C 6 10.808594 6.808594 10 8 10 Z M 12 13 C 11.398438 13 11 13.398438 11 14 L 11 15 C 11 15.601563 11.398438 16 12 16 L 14 16 C 14.601563 16 15 15.601563 15 15 L 15 14 C 15 13.398438 14.601563 13 14 13 Z M 6 16 L 7 16 L 7 17 L 6 17 Z M 19 16 L 20 16 L 20 17 L 19 17 Z M 6 18 L 7 18 L 7 19 L 6 19 Z M 19 18 L 20 18 L 20 19 L 19 19 Z M 10.5 23 C 11.023438 23 11.582031 23.21875 12 23.4375 L 12 24 L 9 24 L 9 23.4375 C 9.417969 23.21875 9.976563 23 10.5 23 Z M 15.5 23 C 16.023438 23 16.582031 23.21875 17 23.4375 L 17 24 L 14 24 L 14 23.4375 C 14.417969 23.21875 14.976563 23 15.5 23 Z "></path></g></svg><g id="group" transform="translate(39.000000, 56.000000)"><rect id="Rectangle-14" x="0" y="0" width="83" height="22"></rect><text id="headerText.primary" font-family="Overpass Mono" font-size="18" font-weight="700" letter-spacing=".81" fill="#b4ffd8" data-text-alignment="C" font-style="normal"><tspan x="23.653011322021484" y="15.5">ysl</tspan></text></g><rect id="shape.primary" fill="#b4ffd8" x="42" y="78" width="76" height="2"></rect><path d="M80 22c-1.105 0 -2 -0.895 -2 -2c0 -1.105 0.895 -2 2 -2c1.105 0 2 0.895 2 2c0 1.105 -0.895 2 -2 2zm0 120c-1.105 0 -2 -0.895 -2 -2c0 -1.105 0.895 -2 2 -2c1.105 0 2 0.895 2 2c0 1.105 -0.895 2 -2 2z" id="shape.primary" fill="#b4ffd8"></path></g></svg>
